<?xml version="1.0" encoding="UTF-8"?>
<svg width="260px" height="80px" viewBox="0 0 260 80" version="1.1" xmlns="http://www.w3.org/2000/svg" xmlns:xlink="http://www.w3.org/1999/xlink">
    <!-- Generator: Sketch 50.2 (55047) - http://www.bohemiancoding.com/sketch -->
    <title>Logo-WhiteBase</title>
    <desc>Created with Sketch.</desc>
    <defs>
        <linearGradient x1="69.4156498%" y1="59.8057271%" x2="23.1840473%" y2="-3.52837699%" id="linearGradient-1">
            <stop stop-color="#00AC6E" offset="0%"></stop>
            <stop stop-color="#177966" offset="100%"></stop>
        </linearGradient>
    </defs>
    <g id="Logo-WhiteBase" stroke="none" stroke-width="1" fill="none" fill-rule="evenodd">
        <polygon id="Fill-1" points="0 80 260.002 80 260.002 0 0 0"></polygon>
        <polygon id="Fill-2" points="0 70 60 70 60 10 0 10"></polygon>
        <path d="M83.949,46.143 C88.638,46.143 91.102,42.904 91.102,37.802 C91.102,32.828 88.702,29.936 84.139,29.936 L80.005,29.936 L80.005,46.143 L83.949,46.143 Z M70,21 L84.591,21 C95.827,21 101.701,27.668 101.701,37.635 C101.774,47.674 95.556,55.182 84.116,55.079 L70,55.079 L70,21 Z" id="Fill-3" fill="#061F19"></path>
        <path d="M227.882,50.319 C229.72,50.319 231.019,49.257 231.019,47.799 C231.019,46.342 229.751,45.281 227.882,45.281 C226.013,45.281 224.793,46.302 224.793,47.823 C224.793,49.344 225.981,50.319 227.882,50.319 M227.431,30 C235.835,30 240.359,34.69 240.359,41.954 L240.359,55.475 L230.805,55.475 L230.805,52.814 C229.443,54.968 226.932,56.213 223.985,56.213 C219.346,56.213 216,52.923 216,48.465 C216,43.536 219.629,40.623 224.769,40.623 C227.399,40.623 229.411,41.367 230.805,42.856 C230.774,39.498 228.785,37.771 224.983,37.771 C221.941,37.771 219.208,38.785 217.307,40.243 L217.307,32.614 C219.969,31.03 223.628,30 227.431,30" id="Fill-5" fill="#061F19"></path>
        <path d="M117.045867,36.9639855 C114.637867,36.9639855 113.140867,38.3499855 112.886867,40.6939855 L121.014867,40.6939855 C120.887867,38.2549855 119.484867,36.9639855 117.045867,36.9639855 Z M129.094867,45.6609855 L113.028867,45.6609855 C114.138867,47.7529855 116.681867,48.9649855 120.704867,48.9649855 C123.382867,48.9649855 125.806867,48.3389855 127.977867,47.0879855 L127.977867,53.5519855 C125.885867,55.1039855 122.392867,56.2129855 118.020867,56.2129855 C108.787867,56.2129855 103.000867,51.0659855 103.000867,42.9519855 C102.919867,35.3379855 108.524867,29.9159855 116.712867,30.0009855 C124.761867,30.0009855 129.094867,34.3339855 129.094867,42.4779855 L129.094867,45.6609855 Z" id="Fill-7" fill="#061F19"></path>
        <path d="M182.261,55.122 L192.029,55.122 L192.029,30.384 L182.261,30.384 L182.261,55.122 Z M187.156,28.459 C184.168,28.459 182,26.578 182,23.682 C182,20.925 184.06,19 187.156,19 C190.231,19 192.265,20.925 192.265,23.682 C192.265,26.578 190.071,28.459 187.156,28.459 Z" id="Fill-9" fill="#061F19"></path>
        <path d="M148.229,30 C153.659,30 156.903,33.699 156.903,39.91 L156.903,55.476 L147.136,55.476 L147.136,42.12 C147.136,39.427 146.114,38.08 144.07,38.08 C141.884,38.08 140.767,39.72 140.767,42.286 L140.767,55.476 L131,55.476 L131,30.737 L140.577,30.737 L140.577,34.23 C141.875,31.695 144.522,30 148.229,30" id="Fill-11" fill="#061F19"></path>
        <polygon id="Fill-12" fill="#061F19" points="180.15 38.516 174.209 38.516 174.209 55.46 164.441 55.46 164.441 38.516 159 38.516 159 30.722 164.441 30.722 164.441 23.854 174.209 22 174.209 30.722 180.15 30.722"></polygon>
        <path d="M211.064,30 C212.205,30 213.251,30.277 214.201,30.832 L214.201,39.768 C213.345,39.229 211.967,38.841 210.256,38.841 C206.644,38.841 204.766,40.979 204.766,45.162 L204.766,55.19 L195,55.19 L195,30.452 L204.766,30.452 L204.766,35.68 C205.812,31.624 207.959,30 211.064,30" id="Fill-13" fill="#061F19"></path>
        <path d="M29.4978382,20.229 C25.0648382,20.229 19.5688382,16.482 14.0208382,18.705 C9.42083817,20.55 6.10683817,26.233 7.21483817,35.125 C8.59183817,46.16 19.7858382,58.616 20.9288382,58.616 L29.4978382,47.157 L48.7308382,21.444 C47.6568382,20.184 46.3768382,19.266 44.9768382,18.705 C43.7078382,18.197 42.4408382,18 41.1898382,18 C36.9698382,18 32.9188382,20.229 29.4978382,20.229" id="Fill-15" fill="url(#linearGradient-1)"></path>
        <path d="M52.516,35.1255416 C51.139,46.1595416 39.946,58.6155416 38.803,58.6155416 L30.232,47.1565416 L11,21.4435416 C12.074,20.1835416 13.354,19.2665416 14.753,18.7045416 C20.302,16.4815416 25.798,20.2295416 30.232,20.2295416 C34.666,20.2295416 40.162,16.4815416 45.71,18.7045416 C50.31,20.5495416 53.624,26.2325416 52.516,35.1255416" id="Fill-18" fill="#00AD6F"></path>
    </g>
</svg>